<svg width="512" height="512" xmlns="http://www.w3.org/2000/svg">
  <defs>
    <linearGradient id="grad1" x1="0%" y1="0%" x2="100%" y2="100%">
      <stop offset="0%" style="stop-color:#9333ea;stop-opacity:1" />
      <stop offset="100%" style="stop-color:#7c3aed;stop-opacity:1" />
    </linearGradient>
  </defs>
  <rect width="512" height="512" fill="url(#grad1)" rx="64"/>
  <g fill="white">
    <path d="M256 107c-82.4 0-149 66.6-149 149s66.6 149 149 149 149-66.6 149-149-66.6-149-149-149zm0 21c70.7 0 128 57.3 128 128s-57.3 128-128 128-128-57.3-128-128 57.3-128 128-128z"/>
    <path d="M256 171c-47.2 0-85 37.8-85 85s37.8 85 85 85 85-37.8 85-85-37.8-85-85-85zm0 21c35.3 0 64 28.7 64 64s-28.7 64-64 64-64-28.7-64-64 28.7-64 64-64z"/>
    <circle cx="256" cy="256" r="21"/>
  </g>
  <text x="256" y="450" font-family="Arial, sans-serif" font-size="32" font-weight="bold" text-anchor="middle" fill="white">ENTREGA</text>
</svg>